<?xml version="1.0" encoding="UTF-8"?>
<!DOCTYPE svg PUBLIC "-//W3C//DTD SVG 1.1//EN" "http://www.w3.org/Graphics/SVG/1.1/DTD/svg11.dtd">
<svg width="159mm" height="88mm" viewBox="0 0 15900 8800" version="1.1" xmlns="http://www.w3.org/2000/svg" xmlns:xlink="http://www.w3.org/1999/xlink" stroke-width="28.222" stroke-linejoin="round" xml:space="preserve">
 <path fill="rgb(255,255,255)" stroke="none" d="M 7916,8778 L -13,8778 -13,-13 15845,-13 15845,8778 7916,8778 Z"/>
 <path fill="none" stroke="rgb(179,179,179)" stroke-linejoin="round" d="M 8870,6975 L 2492,6975 2492,1451 15248,1451 15248,6975 8870,6975 Z"/>
 <path fill="none" stroke="rgb(179,179,179)" stroke-linejoin="round" d="M 2492,1450 L 2492,6974"/>
 <path fill="none" stroke="rgb(179,179,179)" stroke-linejoin="round" d="M 5681,1450 L 5681,6974"/>
 <path fill="none" stroke="rgb(179,179,179)" stroke-linejoin="round" d="M 8869,1450 L 8869,6974"/>
 <path fill="none" stroke="rgb(179,179,179)" stroke-linejoin="round" d="M 12058,1450 L 12058,6974"/>
 <path fill="none" stroke="rgb(179,179,179)" stroke-linejoin="round" d="M 15248,1450 L 15248,6974"/>
 <path fill="none" stroke="rgb(179,179,179)" stroke-linejoin="round" d="M 15248,6974 L 2492,6974"/>
 <path fill="none" stroke="rgb(179,179,179)" stroke-linejoin="round" d="M 15248,6283 L 2492,6283"/>
 <path fill="none" stroke="rgb(179,179,179)" stroke-linejoin="round" d="M 15248,5592 L 2492,5592"/>
 <path fill="none" stroke="rgb(179,179,179)" stroke-linejoin="round" d="M 15248,4902 L 2492,4902"/>
 <path fill="none" stroke="rgb(179,179,179)" stroke-linejoin="round" d="M 15248,4212 L 2492,4212"/>
 <path fill="none" stroke="rgb(179,179,179)" stroke-linejoin="round" d="M 15248,3521 L 2492,3521"/>
 <path fill="none" stroke="rgb(179,179,179)" stroke-linejoin="round" d="M 15248,2831 L 2492,2831"/>
 <path fill="none" stroke="rgb(179,179,179)" stroke-linejoin="round" d="M 15248,2140 L 2492,2140"/>
 <path fill="none" stroke="rgb(179,179,179)" stroke-linejoin="round" d="M 15248,1450 L 2492,1450"/>
 <path fill="none" stroke="rgb(179,179,179)" stroke-linejoin="round" d="M 2492,7124 L 2492,6974"/>
 <path fill="none" stroke="rgb(179,179,179)" stroke-linejoin="round" d="M 2492,7124 L 2492,6974"/>
 <path fill="none" stroke="rgb(179,179,179)" stroke-linejoin="round" d="M 5681,7124 L 5681,6974"/>
 <path fill="none" stroke="rgb(179,179,179)" stroke-linejoin="round" d="M 5681,7124 L 5681,6974"/>
 <path fill="none" stroke="rgb(179,179,179)" stroke-linejoin="round" d="M 8869,7124 L 8869,6974"/>
 <path fill="none" stroke="rgb(179,179,179)" stroke-linejoin="round" d="M 8869,7124 L 8869,6974"/>
 <path fill="none" stroke="rgb(179,179,179)" stroke-linejoin="round" d="M 12058,7124 L 12058,6974"/>
 <path fill="none" stroke="rgb(179,179,179)" stroke-linejoin="round" d="M 12058,7124 L 12058,6974"/>
 <path fill="none" stroke="rgb(179,179,179)" stroke-linejoin="round" d="M 15248,7124 L 15248,6974"/>
 <path fill="none" stroke="rgb(179,179,179)" stroke-linejoin="round" d="M 15248,7124 L 15248,6974"/>
 <path fill="none" stroke="rgb(179,179,179)" stroke-linejoin="round" d="M 2492,6974 L 15248,6974"/>
 <path fill="none" stroke="rgb(179,179,179)" stroke-linejoin="round" d="M 2342,6974 L 2492,6974"/>
 <path fill="none" stroke="rgb(179,179,179)" stroke-linejoin="round" d="M 2342,6974 L 2492,6974"/>
 <path fill="none" stroke="rgb(179,179,179)" stroke-linejoin="round" d="M 2342,6283 L 2492,6283"/>
 <path fill="none" stroke="rgb(179,179,179)" stroke-linejoin="round" d="M 2342,6283 L 2492,6283"/>
 <path fill="none" stroke="rgb(179,179,179)" stroke-linejoin="round" d="M 2342,5592 L 2492,5592"/>
 <path fill="none" stroke="rgb(179,179,179)" stroke-linejoin="round" d="M 2342,5592 L 2492,5592"/>
 <path fill="none" stroke="rgb(179,179,179)" stroke-linejoin="round" d="M 2342,4902 L 2492,4902"/>
 <path fill="none" stroke="rgb(179,179,179)" stroke-linejoin="round" d="M 2342,4902 L 2492,4902"/>
 <path fill="none" stroke="rgb(179,179,179)" stroke-linejoin="round" d="M 2342,4212 L 2492,4212"/>
 <path fill="none" stroke="rgb(179,179,179)" stroke-linejoin="round" d="M 2342,4212 L 2492,4212"/>
 <path fill="none" stroke="rgb(179,179,179)" stroke-linejoin="round" d="M 2342,3521 L 2492,3521"/>
 <path fill="none" stroke="rgb(179,179,179)" stroke-linejoin="round" d="M 2342,3521 L 2492,3521"/>
 <path fill="none" stroke="rgb(179,179,179)" stroke-linejoin="round" d="M 2342,2831 L 2492,2831"/>
 <path fill="none" stroke="rgb(179,179,179)" stroke-linejoin="round" d="M 2342,2831 L 2492,2831"/>
 <path fill="none" stroke="rgb(179,179,179)" stroke-linejoin="round" d="M 2342,2140 L 2492,2140"/>
 <path fill="none" stroke="rgb(179,179,179)" stroke-linejoin="round" d="M 2342,2140 L 2492,2140"/>
 <path fill="none" stroke="rgb(179,179,179)" stroke-linejoin="round" d="M 2342,1450 L 2492,1450"/>
 <path fill="none" stroke="rgb(179,179,179)" stroke-linejoin="round" d="M 2342,1450 L 2492,1450"/>
 <path fill="none" stroke="rgb(179,179,179)" stroke-linejoin="round" d="M 2492,6974 L 2492,1450"/>
 <path fill="none" stroke="rgb(0,69,134)" stroke-width="80" stroke-linejoin="round" d="M 2492,6937 L 2651,6933 2810,6928 2970,6924 3129,6920 3289,6916 3448,6912 3608,6908 3767,6904 3927,6899 4086,6895 4246,6890 4405,6886 4565,6881 4724,6876 4883,6871 5043,6866 5202,6861 5362,6856 5521,6850 5681,6845 5840,6839 6000,6833 6159,6826 6319,6820 6478,6813 6638,6805 6797,6797 6956,6788 7116,6779 7275,6769 7435,6758 7594,6747 7754,6734 7913,6721 8072,6707 8231,6691 8391,6675 8550,6657 8710,6638 8869,6618 9028,6596 9188,6573 9347,6548 9507,6520 9666,6490 9826,6457 9985,6421 10145,6382 10304,6338 10464,6291 10623,6239 10783,6183 10942,6121 11101,6054 11261,5981 11420,5903 11580,5818 11739,5727 11899,5629 12058,5524 12218,5411 12377,5291 12537,5165 12696,5032 12856,4893 13015,4749 13174,4599 13334,4445 13493,4287 13653,4124 13812,3957 13972,3787 14131,3613 14291,3438 14450,3260 14610,3080 14769,2898 14929,2716 15088,2533 15248,2349"/>
 <path fill="rgb(0,69,134)" stroke="none" d="M 2367,6812 L 2367,7062 2617,7062 2617,6812 2367,6812 Z"/>
 <path fill="none" stroke="rgb(0,69,134)" stroke-linejoin="round" d="M 2367,6812 L 2367,7062 2617,7062 2617,6812 2367,6812 Z"/>
 <path fill="rgb(0,69,134)" stroke="none" d="M 5556,6720 L 5556,6970 5806,6970 5806,6720 5556,6720 Z"/>
 <path fill="none" stroke="rgb(0,69,134)" stroke-linejoin="round" d="M 5556,6720 L 5556,6970 5806,6970 5806,6720 5556,6720 Z"/>
 <path fill="rgb(0,69,134)" stroke="none" d="M 8744,6493 L 8744,6743 8994,6743 8994,6493 8744,6493 Z"/>
 <path fill="none" stroke="rgb(0,69,134)" stroke-linejoin="round" d="M 8744,6493 L 8744,6743 8994,6743 8994,6493 8744,6493 Z"/>
 <path fill="rgb(0,69,134)" stroke="none" d="M 11933,5399 L 11933,5649 12183,5649 12183,5399 11933,5399 Z"/>
 <path fill="none" stroke="rgb(0,69,134)" stroke-linejoin="round" d="M 11933,5399 L 11933,5649 12183,5649 12183,5399 11933,5399 Z"/>
 <path fill="rgb(0,69,134)" stroke="none" d="M 15123,2224 L 15123,2474 15373,2474 15373,2224 15123,2224 Z"/>
 <path fill="none" stroke="rgb(0,69,134)" stroke-linejoin="round" d="M 15123,2224 L 15123,2474 15373,2474 15373,2224 15123,2224 Z"/>
 <path fill="none" stroke="rgb(255,211,32)" stroke-width="80" stroke-linejoin="round" d="M 2492,6944 L 2651,6939 2810,6934 2970,6929 3129,6924 3289,6919 3448,6915 3608,6910 3767,6905 3927,6900 4086,6896 4246,6891 4405,6887 4565,6882 4724,6878 4883,6874 5043,6870 5202,6866 5362,6862 5521,6859 5681,6855 5840,6852 6000,6848 6159,6845 6319,6842 6478,6838 6638,6834 6797,6830 6956,6825 7116,6819 7275,6813 7435,6806 7594,6798 7754,6789 7913,6778 8072,6767 8231,6755 8391,6740 8550,6725 8710,6708 8869,6689 9028,6668 9188,6646 9347,6621 9507,6593 9666,6562 9826,6529 9985,6492 10145,6451 10304,6406 10464,6357 10623,6303 10783,6245 10942,6181 11101,6112 11261,6038 11420,5958 11580,5871 11739,5778 11899,5678 12058,5572 12218,5458 12377,5337 12537,5210 12696,5076 12856,4937 13015,4792 13174,4642 13334,4487 13493,4329 13653,4167 13812,4000 13972,3830 14131,3657 14291,3482 14450,3305 14610,3125 14769,2944 14929,2763 15088,2580 15248,2397"/>
 <path fill="rgb(255,211,32)" stroke="none" d="M 2367,6819 L 2492,7069 2617,6819 2367,6819 Z"/>
 <path fill="none" stroke="rgb(255,211,32)" stroke-linejoin="round" d="M 2367,6819 L 2492,7069 2617,6819 2367,6819 Z"/>
 <path fill="rgb(255,211,32)" stroke="none" d="M 5556,6730 L 5681,6980 5806,6730 5556,6730 Z"/>
 <path fill="none" stroke="rgb(255,211,32)" stroke-linejoin="round" d="M 5556,6730 L 5681,6980 5806,6730 5556,6730 Z"/>
 <path fill="rgb(255,211,32)" stroke="none" d="M 8744,6564 L 8869,6814 8994,6564 8744,6564 Z"/>
 <path fill="none" stroke="rgb(255,211,32)" stroke-linejoin="round" d="M 8744,6564 L 8869,6814 8994,6564 8744,6564 Z"/>
 <path fill="rgb(255,211,32)" stroke="none" d="M 11933,5447 L 12058,5697 12183,5447 11933,5447 Z"/>
 <path fill="none" stroke="rgb(255,211,32)" stroke-linejoin="round" d="M 11933,5447 L 12058,5697 12183,5447 11933,5447 Z"/>
 <path fill="rgb(255,211,32)" stroke="none" d="M 15123,2272 L 15248,2522 15373,2272 15123,2272 Z"/>
 <path fill="none" stroke="rgb(255,211,32)" stroke-linejoin="round" d="M 15123,2272 L 15248,2522 15373,2272 15123,2272 Z"/>
 <path fill="none" stroke="rgb(255,66,14)" stroke-width="80" stroke-linejoin="round" d="M 2492,6940 L 2651,6935 2810,6931 2970,6926 3129,6921 3289,6916 3448,6912 3608,6907 3767,6902 3927,6898 4086,6894 4246,6890 4405,6886 4565,6882 4724,6879 4883,6875 5043,6872 5202,6869 5362,6867 5521,6864 5681,6862 5840,6861 6000,6859 6159,6857 6319,6856 6478,6855 6638,6853 6797,6851 6956,6849 7116,6846 7275,6843 7435,6839 7594,6835 7754,6830 7913,6824 8072,6817 8231,6809 8391,6800 8550,6790 8710,6778 8869,6765 9028,6751 9188,6735 9347,6716 9507,6695 9666,6672 9826,6645 9985,6615 10145,6582 10304,6544 10464,6502 10623,6455 10783,6404 10942,6347 11101,6285 11261,6216 11420,6141 11580,6060 11739,5972 11899,5877 12058,5774 12218,5664 12377,5546 12537,5421 12696,5289 12856,5152 13015,5008 13174,4859 13334,4704 13493,4545 13653,4383 13812,4216 13972,4045 14131,3871 14291,3695 14450,3516 14610,3335 14769,3153 14929,2969 15088,2785 15248,2600"/>
 <path fill="rgb(255,66,14)" stroke="none" d="M 2367,6940 L 2492,7065 2617,6940 2492,6815 2367,6940 Z"/>
 <path fill="none" stroke="rgb(255,66,14)" stroke-linejoin="round" d="M 2367,6940 L 2492,7065 2617,6940 2492,6815 2367,6940 Z"/>
 <path fill="rgb(255,66,14)" stroke="none" d="M 5556,6862 L 5681,6987 5806,6862 5681,6737 5556,6862 Z"/>
 <path fill="none" stroke="rgb(255,66,14)" stroke-linejoin="round" d="M 5556,6862 L 5681,6987 5806,6862 5681,6737 5556,6862 Z"/>
 <path fill="rgb(255,66,14)" stroke="none" d="M 8744,6765 L 8869,6890 8994,6765 8869,6640 8744,6765 Z"/>
 <path fill="none" stroke="rgb(255,66,14)" stroke-linejoin="round" d="M 8744,6765 L 8869,6890 8994,6765 8869,6640 8744,6765 Z"/>
 <path fill="rgb(255,66,14)" stroke="none" d="M 11933,5774 L 12058,5899 12183,5774 12058,5649 11933,5774 Z"/>
 <path fill="none" stroke="rgb(255,66,14)" stroke-linejoin="round" d="M 11933,5774 L 12058,5899 12183,5774 12058,5649 11933,5774 Z"/>
 <path fill="rgb(255,66,14)" stroke="none" d="M 15123,2600 L 15248,2725 15373,2600 15248,2475 15123,2600 Z"/>
 <path fill="none" stroke="rgb(255,66,14)" stroke-linejoin="round" d="M 15123,2600 L 15248,2725 15373,2600 15248,2475 15123,2600 Z"/>
 <path fill="none" stroke="rgb(87,157,28)" stroke-width="80" stroke-linejoin="round" d="M 2492,6944 L 2651,6940 2810,6935 2970,6931 3129,6927 3289,6922 3448,6918 3608,6914 3767,6910 3927,6906 4086,6902 4246,6898 4405,6894 4565,6890 4724,6887 4883,6884 5043,6880 5202,6877 5362,6874 5521,6872 5681,6869 5840,6867 6000,6865 6159,6863 6319,6861 6478,6858 6638,6856 6797,6853 6956,6851 7116,6847 7275,6844 7435,6840 7594,6835 7754,6830 7913,6823 8072,6817 8231,6809 8391,6800 8550,6791 8710,6780 8869,6768 9028,6755 9188,6741 9347,6724 9507,6706 9666,6684 9826,6660 9985,6633 10145,6602 10304,6567 10464,6528 10623,6484 10783,6435 10942,6381 11101,6321 11261,6255 11420,6183 11580,6104 11739,6018 11899,5925 12058,5824 12218,5715 12377,5598 12537,5474 12696,5343 12856,5206 13015,5063 13174,4914 13334,4760 13493,4601 13653,4437 13812,4271 13972,4100 14131,3926 14291,3749 14450,3569 14610,3387 14769,3204 14929,3020 15088,2835 15248,2649"/>
 <path fill="rgb(87,157,28)" stroke="none" d="M 2367,7069 L 2617,7069 2492,6819 2367,7069 Z"/>
 <path fill="none" stroke="rgb(87,157,28)" stroke-linejoin="round" d="M 2367,7069 L 2617,7069 2492,6819 2367,7069 Z"/>
 <path fill="rgb(87,157,28)" stroke="none" d="M 5556,6994 L 5806,6994 5681,6744 5556,6994 Z"/>
 <path fill="none" stroke="rgb(87,157,28)" stroke-linejoin="round" d="M 5556,6994 L 5806,6994 5681,6744 5556,6994 Z"/>
 <path fill="rgb(87,157,28)" stroke="none" d="M 8744,6893 L 8994,6893 8869,6643 8744,6893 Z"/>
 <path fill="none" stroke="rgb(87,157,28)" stroke-linejoin="round" d="M 8744,6893 L 8994,6893 8869,6643 8744,6893 Z"/>
 <path fill="rgb(87,157,28)" stroke="none" d="M 11933,5949 L 12183,5949 12058,5699 11933,5949 Z"/>
 <path fill="none" stroke="rgb(87,157,28)" stroke-linejoin="round" d="M 11933,5949 L 12183,5949 12058,5699 11933,5949 Z"/>
 <path fill="rgb(87,157,28)" stroke="none" d="M 15123,2774 L 15373,2774 15248,2524 15123,2774 Z"/>
 <path fill="none" stroke="rgb(87,157,28)" stroke-linejoin="round" d="M 15123,2774 L 15373,2774 15248,2524 15123,2774 Z"/>
 <text class="SVGTextShape"><tspan class="TextParagraph" font-family="Liberation Sans, sans-serif" font-size="353px" font-weight="400"><tspan class="TextPosition" x="2307" y="7542"><tspan fill="rgb(0,0,0)" stroke="none" style="white-space: pre">36</tspan></tspan></tspan></text>
 <text class="SVGTextShape"><tspan class="TextParagraph" font-family="Liberation Sans, sans-serif" font-size="353px" font-weight="400"><tspan class="TextPosition" x="5496" y="7542"><tspan fill="rgb(0,0,0)" stroke="none" style="white-space: pre">84</tspan></tspan></tspan></text>
 <text class="SVGTextShape"><tspan class="TextParagraph" font-family="Liberation Sans, sans-serif" font-size="353px" font-weight="400"><tspan class="TextPosition" x="8592" y="7542"><tspan fill="rgb(0,0,0)" stroke="none" style="white-space: pre">108</tspan></tspan></tspan></text>
 <text class="SVGTextShape"><tspan class="TextParagraph" font-family="Liberation Sans, sans-serif" font-size="353px" font-weight="400"><tspan class="TextPosition" x="11781" y="7542"><tspan fill="rgb(0,0,0)" stroke="none" style="white-space: pre">140</tspan></tspan></tspan></text>
 <text class="SVGTextShape"><tspan class="TextParagraph" font-family="Liberation Sans, sans-serif" font-size="353px" font-weight="400"><tspan class="TextPosition" x="14971" y="7542"><tspan fill="rgb(0,0,0)" stroke="none" style="white-space: pre">216</tspan></tspan></tspan></text>
 <text class="SVGTextShape"><tspan class="TextParagraph" font-family="Liberation Sans, sans-serif" font-size="353px" font-weight="400"><tspan class="TextPosition" x="2057" y="7095"><tspan fill="rgb(0,0,0)" stroke="none" style="white-space: pre">0</tspan></tspan></tspan></text>
 <text class="SVGTextShape"><tspan class="TextParagraph" font-family="Liberation Sans, sans-serif" font-size="353px" font-weight="400"><tspan class="TextPosition" x="1501" y="6404"><tspan fill="rgb(0,0,0)" stroke="none" style="white-space: pre">2000</tspan></tspan></tspan></text>
 <text class="SVGTextShape"><tspan class="TextParagraph" font-family="Liberation Sans, sans-serif" font-size="353px" font-weight="400"><tspan class="TextPosition" x="1501" y="5713"><tspan fill="rgb(0,0,0)" stroke="none" style="white-space: pre">4000</tspan></tspan></tspan></text>
 <text class="SVGTextShape"><tspan class="TextParagraph" font-family="Liberation Sans, sans-serif" font-size="353px" font-weight="400"><tspan class="TextPosition" x="1501" y="5023"><tspan fill="rgb(0,0,0)" stroke="none" style="white-space: pre">6000</tspan></tspan></tspan></text>
 <text class="SVGTextShape"><tspan class="TextParagraph" font-family="Liberation Sans, sans-serif" font-size="353px" font-weight="400"><tspan class="TextPosition" x="1501" y="4332"><tspan fill="rgb(0,0,0)" stroke="none" style="white-space: pre">8000</tspan></tspan></tspan></text>
 <text class="SVGTextShape"><tspan class="TextParagraph" font-family="Liberation Sans, sans-serif" font-size="353px" font-weight="400"><tspan class="TextPosition" x="1316" y="3641"><tspan fill="rgb(0,0,0)" stroke="none" style="white-space: pre">10000</tspan></tspan></tspan></text>
 <text class="SVGTextShape"><tspan class="TextParagraph" font-family="Liberation Sans, sans-serif" font-size="353px" font-weight="400"><tspan class="TextPosition" x="1316" y="2951"><tspan fill="rgb(0,0,0)" stroke="none" style="white-space: pre">12000</tspan></tspan></tspan></text>
 <text class="SVGTextShape"><tspan class="TextParagraph" font-family="Liberation Sans, sans-serif" font-size="353px" font-weight="400"><tspan class="TextPosition" x="1316" y="2260"><tspan fill="rgb(0,0,0)" stroke="none" style="white-space: pre">14000</tspan></tspan></tspan></text>
 <text class="SVGTextShape"><tspan class="TextParagraph" font-family="Liberation Sans, sans-serif" font-size="353px" font-weight="400"><tspan class="TextPosition" x="1316" y="1570"><tspan fill="rgb(0,0,0)" stroke="none" style="white-space: pre">16000</tspan></tspan></tspan></text>
 <text class="SVGTextShape"><tspan class="TextParagraph" font-family="Liberation Sans, sans-serif" font-size="459px" font-weight="400"><tspan class="TextPosition" x="3868" y="833"><tspan fill="rgb(0,0,0)" stroke="none" style="white-space: pre">Comparisons (Modulo 120, Buckets of 1)</tspan></tspan></tspan></text>
 <path fill="rgb(255,255,255)" stroke="none" d="M 6111,4098 L 3702,4098 3702,2252 8519,2252 8519,4098 6111,4098 Z"/>
 <path fill="none" stroke="rgb(0,0,0)" stroke-linejoin="round" d="M 6111,4098 L 3702,4098 3702,2252 8519,2252 8519,4098 6111,4098 Z"/>
 <path fill="none" stroke="rgb(0,69,134)" stroke-width="80" stroke-linejoin="round" d="M 3794,2500 L 4594,2500"/>
 <path fill="rgb(0,69,134)" stroke="none" d="M 4088,2395 L 4088,2606 4299,2606 4299,2395 4088,2395 Z"/>
 <path fill="none" stroke="rgb(0,69,134)" stroke-linejoin="round" d="M 4088,2395 L 4088,2606 4299,2606 4299,2395 4088,2395 Z"/>
 <path fill="none" stroke="rgb(255,211,32)" stroke-width="80" stroke-linejoin="round" d="M 3794,2948 L 4594,2948"/>
 <path fill="rgb(255,211,32)" stroke="none" d="M 4088,2843 L 4194,3054 4299,2843 4088,2843 Z"/>
 <path fill="none" stroke="rgb(255,211,32)" stroke-linejoin="round" d="M 4088,2843 L 4194,3054 4299,2843 4088,2843 Z"/>
 <path fill="none" stroke="rgb(255,66,14)" stroke-width="80" stroke-linejoin="round" d="M 3794,3396 L 4594,3396"/>
 <path fill="rgb(255,66,14)" stroke="none" d="M 4088,3396 L 4194,3502 4299,3396 4194,3291 4088,3396 Z"/>
 <path fill="none" stroke="rgb(255,66,14)" stroke-linejoin="round" d="M 4088,3396 L 4194,3502 4299,3396 4194,3291 4088,3396 Z"/>
 <path fill="none" stroke="rgb(87,157,28)" stroke-width="80" stroke-linejoin="round" d="M 3794,3844 L 4594,3844"/>
 <path fill="rgb(87,157,28)" stroke="none" d="M 4088,3950 L 4299,3950 4194,3739 4088,3950 Z"/>
 <path fill="none" stroke="rgb(87,157,28)" stroke-linejoin="round" d="M 4088,3950 L 4299,3950 4194,3739 4088,3950 Z"/>
 <text class="SVGTextShape"><tspan class="TextParagraph" font-family="Liberation Sans, sans-serif" font-size="353px" font-weight="400"><tspan class="TextPosition" x="4694" y="2620"><tspan fill="rgb(0,0,0)" stroke="none" style="white-space: pre">division (linear)</tspan></tspan></tspan></text>
 <text class="SVGTextShape"><tspan class="TextParagraph" font-family="Liberation Sans, sans-serif" font-size="353px" font-weight="400"><tspan class="TextPosition" x="4694" y="3068"><tspan fill="rgb(0,0,0)" stroke="none" style="white-space: pre">multiplication (linear)</tspan></tspan></tspan></text>
 <text class="SVGTextShape"><tspan class="TextParagraph" font-family="Liberation Sans, sans-serif" font-size="353px" font-weight="400"><tspan class="TextPosition" x="4694" y="3516"><tspan fill="rgb(0,0,0)" stroke="none" style="white-space: pre">division (quadratic)</tspan></tspan></tspan></text>
 <text class="SVGTextShape"><tspan class="TextParagraph" font-family="Liberation Sans, sans-serif" font-size="353px" font-weight="400"><tspan class="TextPosition" x="4694" y="3964"><tspan fill="rgb(0,0,0)" stroke="none" style="white-space: pre">multiplication (quadratic)</tspan></tspan></tspan></text>
 <text class="SVGTextShape"><tspan class="TextParagraph" font-family="Liberation Sans, sans-serif" font-size="318px" font-weight="400"><tspan class="TextPosition" x="7125" y="8184"><tspan fill="rgb(0,0,0)" stroke="none" style="white-space: pre">Number of Values</tspan></tspan></tspan></text>
 <text class="SVGTextShape" transform="rotate(-90 824 5402)"><tspan class="TextParagraph" font-family="Liberation Sans, sans-serif" font-size="318px" font-weight="400"><tspan class="TextPosition" x="824" y="5402"><tspan fill="rgb(0,0,0)" stroke="none" style="white-space: pre">Comparisons</tspan></tspan></tspan></text>
</svg>