<?xml version="1.0" encoding="UTF-8"?>
<!DOCTYPE svg PUBLIC "-//W3C//DTD SVG 1.1//EN" "http://www.w3.org/Graphics/SVG/1.1/DTD/svg11.dtd">
<svg width="160mm" height="100mm" viewBox="0 0 16000 10000" version="1.1" xmlns="http://www.w3.org/2000/svg" xmlns:xlink="http://www.w3.org/1999/xlink" stroke-width="28.222" stroke-linejoin="round" xml:space="preserve">
 <path fill="rgb(255,255,255)" stroke="none" d="M 7988,9973 L -13,9973 -13,-13 15988,-13 15988,9973 7988,9973 Z"/>
 <path fill="none" stroke="rgb(0,0,0)" stroke-linejoin="round" d="M 7988,9973 L -13,9973 -13,-13 15988,-13 15988,9973 7988,9973 Z"/>
 <path fill="none" stroke="rgb(179,179,179)" stroke-linejoin="round" d="M 8602,8590 L 2128,8590 2128,1733 15077,1733 15077,8590 8602,8590 Z"/>
 <path fill="none" stroke="rgb(179,179,179)" stroke-linejoin="round" d="M 15077,8589 L 2128,8589"/>
 <path fill="none" stroke="rgb(179,179,179)" stroke-linejoin="round" d="M 15077,7732 L 2128,7732"/>
 <path fill="none" stroke="rgb(179,179,179)" stroke-linejoin="round" d="M 15077,6875 L 2128,6875"/>
 <path fill="none" stroke="rgb(179,179,179)" stroke-linejoin="round" d="M 15077,6017 L 2128,6017"/>
 <path fill="none" stroke="rgb(179,179,179)" stroke-linejoin="round" d="M 15077,5160 L 2128,5160"/>
 <path fill="none" stroke="rgb(179,179,179)" stroke-linejoin="round" d="M 15077,4303 L 2128,4303"/>
 <path fill="none" stroke="rgb(179,179,179)" stroke-linejoin="round" d="M 15077,3446 L 2128,3446"/>
 <path fill="none" stroke="rgb(179,179,179)" stroke-linejoin="round" d="M 15077,2589 L 2128,2589"/>
 <path fill="none" stroke="rgb(179,179,179)" stroke-linejoin="round" d="M 15077,1732 L 2128,1732"/>
 <path fill="none" stroke="rgb(179,179,179)" stroke-linejoin="round" d="M 2128,8739 L 2128,8589"/>
 <path fill="none" stroke="rgb(179,179,179)" stroke-linejoin="round" d="M 2128,8739 L 2128,8589"/>
 <path fill="none" stroke="rgb(179,179,179)" stroke-linejoin="round" d="M 4286,8739 L 4286,8589"/>
 <path fill="none" stroke="rgb(179,179,179)" stroke-linejoin="round" d="M 4286,8739 L 4286,8589"/>
 <path fill="none" stroke="rgb(179,179,179)" stroke-linejoin="round" d="M 6444,8739 L 6444,8589"/>
 <path fill="none" stroke="rgb(179,179,179)" stroke-linejoin="round" d="M 6444,8739 L 6444,8589"/>
 <path fill="none" stroke="rgb(179,179,179)" stroke-linejoin="round" d="M 8602,8739 L 8602,8589"/>
 <path fill="none" stroke="rgb(179,179,179)" stroke-linejoin="round" d="M 8602,8739 L 8602,8589"/>
 <path fill="none" stroke="rgb(179,179,179)" stroke-linejoin="round" d="M 10760,8739 L 10760,8589"/>
 <path fill="none" stroke="rgb(179,179,179)" stroke-linejoin="round" d="M 10760,8739 L 10760,8589"/>
 <path fill="none" stroke="rgb(179,179,179)" stroke-linejoin="round" d="M 12918,8739 L 12918,8589"/>
 <path fill="none" stroke="rgb(179,179,179)" stroke-linejoin="round" d="M 12918,8739 L 12918,8589"/>
 <path fill="none" stroke="rgb(179,179,179)" stroke-linejoin="round" d="M 15077,8739 L 15077,8589"/>
 <path fill="none" stroke="rgb(179,179,179)" stroke-linejoin="round" d="M 15077,8739 L 15077,8589"/>
 <path fill="none" stroke="rgb(179,179,179)" stroke-linejoin="round" d="M 2128,8589 L 15077,8589"/>
 <path fill="none" stroke="rgb(179,179,179)" stroke-linejoin="round" d="M 1978,8589 L 2128,8589"/>
 <path fill="none" stroke="rgb(179,179,179)" stroke-linejoin="round" d="M 1978,8589 L 2128,8589"/>
 <path fill="none" stroke="rgb(179,179,179)" stroke-linejoin="round" d="M 1978,7732 L 2128,7732"/>
 <path fill="none" stroke="rgb(179,179,179)" stroke-linejoin="round" d="M 1978,7732 L 2128,7732"/>
 <path fill="none" stroke="rgb(179,179,179)" stroke-linejoin="round" d="M 1978,6875 L 2128,6875"/>
 <path fill="none" stroke="rgb(179,179,179)" stroke-linejoin="round" d="M 1978,6875 L 2128,6875"/>
 <path fill="none" stroke="rgb(179,179,179)" stroke-linejoin="round" d="M 1978,6017 L 2128,6017"/>
 <path fill="none" stroke="rgb(179,179,179)" stroke-linejoin="round" d="M 1978,6017 L 2128,6017"/>
 <path fill="none" stroke="rgb(179,179,179)" stroke-linejoin="round" d="M 1978,5160 L 2128,5160"/>
 <path fill="none" stroke="rgb(179,179,179)" stroke-linejoin="round" d="M 1978,5160 L 2128,5160"/>
 <path fill="none" stroke="rgb(179,179,179)" stroke-linejoin="round" d="M 1978,4303 L 2128,4303"/>
 <path fill="none" stroke="rgb(179,179,179)" stroke-linejoin="round" d="M 1978,4303 L 2128,4303"/>
 <path fill="none" stroke="rgb(179,179,179)" stroke-linejoin="round" d="M 1978,3446 L 2128,3446"/>
 <path fill="none" stroke="rgb(179,179,179)" stroke-linejoin="round" d="M 1978,3446 L 2128,3446"/>
 <path fill="none" stroke="rgb(179,179,179)" stroke-linejoin="round" d="M 1978,2589 L 2128,2589"/>
 <path fill="none" stroke="rgb(179,179,179)" stroke-linejoin="round" d="M 1978,2589 L 2128,2589"/>
 <path fill="none" stroke="rgb(179,179,179)" stroke-linejoin="round" d="M 1978,1732 L 2128,1732"/>
 <path fill="none" stroke="rgb(179,179,179)" stroke-linejoin="round" d="M 1978,1732 L 2128,1732"/>
 <path fill="none" stroke="rgb(179,179,179)" stroke-linejoin="round" d="M 2128,8589 L 2128,1732"/>
 <path fill="none" stroke="rgb(52,101,164)" stroke-width="80" stroke-linejoin="round" stroke-linecap="round" stroke-dasharray="1,159" d="M 2128,8526 L 2235,8513 2343,8499 2451,8486 2559,8473 2667,8460 2775,8447 2883,8434 2991,8421 3099,8409 3207,8396 3315,8383 3423,8371 3530,8359 3638,8347 3746,8334 3854,8323 3962,8311 4070,8299 4178,8288 4286,8277 4394,8266 4502,8255 4610,8244 4718,8233 4825,8222 4933,8210 5041,8199 5149,8186 5257,8173 5365,8160 5473,8146 5581,8130 5689,8114 5797,8097 5905,8079 6013,8059 6120,8038 6228,8015 6336,7991 6444,7967 6552,7939 6660,7910 6768,7880 6876,7848 6984,7816 7092,7783 7200,7750 7308,7716 7415,7682 7523,7648 7631,7615 7739,7582 7847,7551 7955,7520 8062,7490 8170,7462 8278,7435 8386,7411 8494,7388 8602,7368 8709,7350 8817,7334 8925,7320 9033,7308 9141,7297 9249,7287 9357,7277 9465,7267 9573,7258 9681,7248 9789,7237 9897,7225 10004,7212 10112,7196 10220,7179 10328,7160 10436,7137 10544,7112 10652,7083 10760,7050 10868,7014 10976,6973 11084,6929 11192,6880 11299,6827 11407,6770 11515,6709 11623,6644 11731,6575 11839,6502 11947,6425 12055,6344 12163,6259 12271,6169 12379,6076 12487,5978 12594,5877 12702,5771 12810,5662 12918,5548 13026,5430 13134,5309 13242,5183 13350,5055 13458,4923 13566,4787 13674,4650 13782,4509 13889,4366 13997,4221 14105,4074 14213,3926 14321,3775 14429,3623 14537,3469 14645,3315 14753,3160 14861,3004 14969,2848 15077,2691"/>
 <path fill="rgb(52,101,164)" stroke="none" d="M 2003,8526 L 2128,8651 2253,8526 2128,8401 2003,8526 Z"/>
 <path fill="none" stroke="rgb(52,101,164)" stroke-linejoin="round" d="M 2003,8526 L 2128,8651 2253,8526 2128,8401 2003,8526 Z"/>
 <path fill="rgb(52,101,164)" stroke="none" d="M 4161,8277 L 4286,8402 4411,8277 4286,8152 4161,8277 Z"/>
 <path fill="none" stroke="rgb(52,101,164)" stroke-linejoin="round" d="M 4161,8277 L 4286,8402 4411,8277 4286,8152 4161,8277 Z"/>
 <path fill="rgb(52,101,164)" stroke="none" d="M 6319,7967 L 6444,8091 6569,7967 6444,7842 6319,7967 Z"/>
 <path fill="none" stroke="rgb(52,101,164)" stroke-linejoin="round" d="M 6319,7967 L 6444,8091 6569,7967 6444,7842 6319,7967 Z"/>
 <path fill="rgb(52,101,164)" stroke="none" d="M 8477,7368 L 8602,7493 8727,7368 8602,7243 8477,7368 Z"/>
 <path fill="none" stroke="rgb(52,101,164)" stroke-linejoin="round" d="M 8477,7368 L 8602,7493 8727,7368 8602,7243 8477,7368 Z"/>
 <path fill="rgb(52,101,164)" stroke="none" d="M 10635,7050 L 10760,7175 10885,7050 10760,6925 10635,7050 Z"/>
 <path fill="none" stroke="rgb(52,101,164)" stroke-linejoin="round" d="M 10635,7050 L 10760,7175 10885,7050 10760,6925 10635,7050 Z"/>
 <path fill="rgb(52,101,164)" stroke="none" d="M 12793,5548 L 12918,5673 13043,5548 12918,5423 12793,5548 Z"/>
 <path fill="none" stroke="rgb(52,101,164)" stroke-linejoin="round" d="M 12793,5548 L 12918,5673 13043,5548 12918,5423 12793,5548 Z"/>
 <path fill="rgb(52,101,164)" stroke="none" d="M 14952,2691 L 15077,2816 15202,2691 15077,2566 14952,2691 Z"/>
 <path fill="none" stroke="rgb(52,101,164)" stroke-linejoin="round" d="M 14952,2691 L 15077,2816 15202,2691 15077,2566 14952,2691 Z"/>
 <path fill="none" stroke="rgb(255,66,14)" stroke-width="80" stroke-linejoin="round" stroke-dasharray="80,240" d="M 2128,8567 L 2235,8563 2343,8558 2451,8553 2559,8549 2667,8544 2775,8540 2883,8535 2991,8531 3099,8527 3207,8522 3315,8518 3423,8514 3530,8509 3638,8505 3746,8501 3854,8497 3962,8493 4070,8489 4178,8485 4286,8481 4394,8478 4502,8474 4610,8470 4718,8467 4825,8463 4933,8459 5041,8455 5149,8451 5257,8447 5365,8442 5473,8437 5581,8432 5689,8426 5797,8420 5905,8414 6013,8407 6120,8400 6228,8392 6336,8383 6444,8374 6552,8364 6660,8354 6768,8343 6876,8332 6984,8320 7092,8309 7200,8297 7308,8284 7415,8272 7523,8260 7631,8248 7739,8237 7847,8225 7955,8214 8062,8203 8170,8193 8278,8184 8386,8175 8494,8167 8602,8160 8709,8154 8817,8148 8925,8143 9033,8139 9141,8135 9249,8132 9357,8128 9465,8125 9573,8122 9681,8119 9789,8115 9897,8111 10004,8107 10112,8102 10220,8096 10328,8090 10436,8082 10544,8074 10652,8064 10760,8053 10868,8040 10976,8026 11084,8011 11192,7994 11299,7977 11407,7957 11515,7936 11623,7913 11731,7888 11839,7863 11947,7835 12055,7806 12163,7776 12271,7744 12379,7710 12487,7675 12594,7638 12702,7600 12810,7560 12918,7518 13026,7474 13134,7429 13242,7383 13350,7335 13458,7286 13566,7236 13674,7184 13782,7131 13889,7078 13997,7023 14105,6968 14213,6912 14321,6855 14429,6798 14537,6740 14645,6682 14753,6623 14861,6564 14969,6505 15077,6446"/>
 <text class="SVGTextShape"><tspan class="TextParagraph" font-family="Liberation Sans, sans-serif" font-size="353px" font-weight="400"><tspan class="TextPosition" x="1666" y="9157"><tspan fill="rgb(0,0,0)" stroke="none" style="white-space: pre">50x50</tspan></tspan></tspan></text>
 <text class="SVGTextShape"><tspan class="TextParagraph" font-family="Liberation Sans, sans-serif" font-size="353px" font-weight="400"><tspan class="TextPosition" x="3731" y="9157"><tspan fill="rgb(0,0,0)" stroke="none" style="white-space: pre">50x250</tspan></tspan></tspan></text>
 <text class="SVGTextShape"><tspan class="TextParagraph" font-family="Liberation Sans, sans-serif" font-size="353px" font-weight="400"><tspan class="TextPosition" x="5888" y="9157"><tspan fill="rgb(0,0,0)" stroke="none" style="white-space: pre">50x500</tspan></tspan></tspan></text>
 <text class="SVGTextShape"><tspan class="TextParagraph" font-family="Liberation Sans, sans-serif" font-size="353px" font-weight="400"><tspan class="TextPosition" x="7955" y="9157"><tspan fill="rgb(0,0,0)" stroke="none" style="white-space: pre">50x1000</tspan></tspan></tspan></text>
 <text class="SVGTextShape"><tspan class="TextParagraph" font-family="Liberation Sans, sans-serif" font-size="353px" font-weight="400"><tspan class="TextPosition" x="10113" y="9157"><tspan fill="rgb(0,0,0)" stroke="none" style="white-space: pre">250x250</tspan></tspan></tspan></text>
 <text class="SVGTextShape"><tspan class="TextParagraph" font-family="Liberation Sans, sans-serif" font-size="353px" font-weight="400"><tspan class="TextPosition" x="12270" y="9157"><tspan fill="rgb(0,0,0)" stroke="none" style="white-space: pre">250x500</tspan></tspan></tspan></text>
 <text class="SVGTextShape"><tspan class="TextParagraph" font-family="Liberation Sans, sans-serif" font-size="353px" font-weight="400"><tspan class="TextPosition" x="14336" y="9157"><tspan fill="rgb(0,0,0)" stroke="none" style="white-space: pre">250x1000</tspan></tspan></tspan></text>
 <text class="SVGTextShape"><tspan class="TextParagraph" font-family="Liberation Sans, sans-serif" font-size="353px" font-weight="400"><tspan class="TextPosition" x="1693" y="8710"><tspan fill="rgb(0,0,0)" stroke="none" style="white-space: pre">0</tspan></tspan></tspan></text>
 <text class="SVGTextShape"><tspan class="TextParagraph" font-family="Liberation Sans, sans-serif" font-size="353px" font-weight="400"><tspan class="TextPosition" x="767" y="7852"><tspan fill="rgb(0,0,0)" stroke="none" style="white-space: pre">100000</tspan></tspan></tspan></text>
 <text class="SVGTextShape"><tspan class="TextParagraph" font-family="Liberation Sans, sans-serif" font-size="353px" font-weight="400"><tspan class="TextPosition" x="767" y="6995"><tspan fill="rgb(0,0,0)" stroke="none" style="white-space: pre">200000</tspan></tspan></tspan></text>
 <text class="SVGTextShape"><tspan class="TextParagraph" font-family="Liberation Sans, sans-serif" font-size="353px" font-weight="400"><tspan class="TextPosition" x="767" y="6137"><tspan fill="rgb(0,0,0)" stroke="none" style="white-space: pre">300000</tspan></tspan></tspan></text>
 <text class="SVGTextShape"><tspan class="TextParagraph" font-family="Liberation Sans, sans-serif" font-size="353px" font-weight="400"><tspan class="TextPosition" x="767" y="5281"><tspan fill="rgb(0,0,0)" stroke="none" style="white-space: pre">400000</tspan></tspan></tspan></text>
 <text class="SVGTextShape"><tspan class="TextParagraph" font-family="Liberation Sans, sans-serif" font-size="353px" font-weight="400"><tspan class="TextPosition" x="767" y="4424"><tspan fill="rgb(0,0,0)" stroke="none" style="white-space: pre">500000</tspan></tspan></tspan></text>
 <text class="SVGTextShape"><tspan class="TextParagraph" font-family="Liberation Sans, sans-serif" font-size="353px" font-weight="400"><tspan class="TextPosition" x="767" y="3566"><tspan fill="rgb(0,0,0)" stroke="none" style="white-space: pre">600000</tspan></tspan></tspan></text>
 <text class="SVGTextShape"><tspan class="TextParagraph" font-family="Liberation Sans, sans-serif" font-size="353px" font-weight="400"><tspan class="TextPosition" x="767" y="2709"><tspan fill="rgb(0,0,0)" stroke="none" style="white-space: pre">700000</tspan></tspan></tspan></text>
 <text class="SVGTextShape"><tspan class="TextParagraph" font-family="Liberation Sans, sans-serif" font-size="353px" font-weight="400"><tspan class="TextPosition" x="767" y="1853"><tspan fill="rgb(0,0,0)" stroke="none" style="white-space: pre">800000</tspan></tspan></tspan></text>
 <text class="SVGTextShape"><tspan class="TextParagraph" font-family="Liberation Sans, sans-serif" font-size="459px" font-weight="400"><tspan class="TextPosition" x="6678" y="858"><tspan fill="rgb(0,0,0)" stroke="none" style="white-space: pre">Comparisons</tspan></tspan></tspan></text>
 <text class="SVGTextShape"><tspan class="TextParagraph" font-family="Liberation Sans, sans-serif" font-size="388px" font-weight="400"><tspan class="TextPosition" x="6152" y="1339"><tspan fill="rgb(0,0,0)" stroke="none" style="white-space: pre"> </tspan><tspan fill="rgb(0,0,0)" stroke="none" style="white-space: pre">Predicted and Actual</tspan></tspan></tspan></text>
 <path fill="rgb(255,255,255)" stroke="none" d="M 4835,3246 L 2299,3246 2299,1897 7371,1897 7371,3246 4835,3246 Z"/>
 <path fill="none" stroke="rgb(0,0,0)" stroke-linejoin="round" d="M 4835,3246 L 2299,3246 2299,1897 7371,1897 7371,3246 4835,3246 Z"/>
 <path fill="none" stroke="rgb(52,101,164)" stroke-width="80" stroke-linejoin="round" stroke-linecap="round" stroke-dasharray="1,159" d="M 2978,2279 L 4578,2279"/>
 <path fill="rgb(52,101,164)" stroke="none" d="M 3672,2279 L 3778,2385 3883,2279 3778,2174 3672,2279 Z"/>
 <path fill="none" stroke="rgb(52,101,164)" stroke-linejoin="round" d="M 3672,2279 L 3778,2385 3883,2279 3778,2174 3672,2279 Z"/>
 <path fill="none" stroke="rgb(255,66,14)" stroke-width="80" stroke-linejoin="round" stroke-dasharray="80,240" d="M 2978,2861 L 4578,2861"/>
 <text class="SVGTextShape"><tspan class="TextParagraph" font-family="Liberation Sans, sans-serif" font-size="353px" font-weight="400"><tspan class="TextPosition" x="4678" y="2399"><tspan fill="rgb(0,0,0)" stroke="none" style="white-space: pre">Comparisons</tspan></tspan></tspan></text>
 <text class="SVGTextShape"><tspan class="TextParagraph" font-family="Liberation Sans, sans-serif" font-size="353px" font-weight="400"><tspan class="TextPosition" x="4678" y="2981"><tspan fill="rgb(0,0,0)" stroke="none" style="white-space: pre">MxN</tspan></tspan></tspan></text>
 <text class="SVGTextShape"><tspan class="TextParagraph" font-family="Liberation Sans, sans-serif" font-size="318px" font-weight="400"><tspan class="TextPosition" x="7433" y="9800"><tspan fill="rgb(0,0,0)" stroke="none" style="white-space: pre">String Sizes</tspan></tspan></tspan></text>
 <text class="SVGTextShape" transform="rotate(-90 374 6350)"><tspan class="TextParagraph" font-family="Liberation Sans, sans-serif" font-size="318px" font-weight="400"><tspan class="TextPosition" x="374" y="6350"><tspan fill="rgb(0,0,0)" stroke="none" style="white-space: pre">Comparisons</tspan></tspan></tspan></text>
</svg>