<?xml version="1.0" encoding="UTF-8"?>
<!DOCTYPE svg PUBLIC "-//W3C//DTD SVG 1.1//EN" "http://www.w3.org/Graphics/SVG/1.1/DTD/svg11.dtd">
<svg width="160mm" height="100mm" viewBox="0 0 16000 10000" version="1.1" xmlns="http://www.w3.org/2000/svg" xmlns:xlink="http://www.w3.org/1999/xlink" stroke-width="28.222" stroke-linejoin="round" xml:space="preserve">
 <path fill="rgb(255,255,255)" stroke="none" d="M 7988,9973 L -13,9973 -13,-13 15988,-13 15988,9973 7988,9973 Z"/>
 <path fill="none" stroke="rgb(0,0,0)" stroke-linejoin="round" d="M 7988,9973 L -13,9973 -13,-13 15988,-13 15988,9973 7988,9973 Z"/>
 <path fill="none" stroke="rgb(179,179,179)" stroke-linejoin="round" d="M 8602,8590 L 2128,8590 2128,1733 15077,1733 15077,8590 8602,8590 Z"/>
 <path fill="none" stroke="rgb(179,179,179)" stroke-linejoin="round" d="M 15077,8589 L 2128,8589"/>
 <path fill="none" stroke="rgb(179,179,179)" stroke-linejoin="round" d="M 15077,7610 L 2128,7610"/>
 <path fill="none" stroke="rgb(179,179,179)" stroke-linejoin="round" d="M 15077,6630 L 2128,6630"/>
 <path fill="none" stroke="rgb(179,179,179)" stroke-linejoin="round" d="M 15077,5650 L 2128,5650"/>
 <path fill="none" stroke="rgb(179,179,179)" stroke-linejoin="round" d="M 15077,4670 L 2128,4670"/>
 <path fill="none" stroke="rgb(179,179,179)" stroke-linejoin="round" d="M 15077,3691 L 2128,3691"/>
 <path fill="none" stroke="rgb(179,179,179)" stroke-linejoin="round" d="M 15077,2711 L 2128,2711"/>
 <path fill="none" stroke="rgb(179,179,179)" stroke-linejoin="round" d="M 15077,1732 L 2128,1732"/>
 <path fill="none" stroke="rgb(179,179,179)" stroke-linejoin="round" d="M 2128,8739 L 2128,8589"/>
 <path fill="none" stroke="rgb(179,179,179)" stroke-linejoin="round" d="M 2128,8739 L 2128,8589"/>
 <path fill="none" stroke="rgb(179,179,179)" stroke-linejoin="round" d="M 4286,8739 L 4286,8589"/>
 <path fill="none" stroke="rgb(179,179,179)" stroke-linejoin="round" d="M 4286,8739 L 4286,8589"/>
 <path fill="none" stroke="rgb(179,179,179)" stroke-linejoin="round" d="M 6444,8739 L 6444,8589"/>
 <path fill="none" stroke="rgb(179,179,179)" stroke-linejoin="round" d="M 6444,8739 L 6444,8589"/>
 <path fill="none" stroke="rgb(179,179,179)" stroke-linejoin="round" d="M 8602,8739 L 8602,8589"/>
 <path fill="none" stroke="rgb(179,179,179)" stroke-linejoin="round" d="M 8602,8739 L 8602,8589"/>
 <path fill="none" stroke="rgb(179,179,179)" stroke-linejoin="round" d="M 10760,8739 L 10760,8589"/>
 <path fill="none" stroke="rgb(179,179,179)" stroke-linejoin="round" d="M 10760,8739 L 10760,8589"/>
 <path fill="none" stroke="rgb(179,179,179)" stroke-linejoin="round" d="M 12918,8739 L 12918,8589"/>
 <path fill="none" stroke="rgb(179,179,179)" stroke-linejoin="round" d="M 12918,8739 L 12918,8589"/>
 <path fill="none" stroke="rgb(179,179,179)" stroke-linejoin="round" d="M 15077,8739 L 15077,8589"/>
 <path fill="none" stroke="rgb(179,179,179)" stroke-linejoin="round" d="M 15077,8739 L 15077,8589"/>
 <path fill="none" stroke="rgb(179,179,179)" stroke-linejoin="round" d="M 2128,8589 L 15077,8589"/>
 <path fill="none" stroke="rgb(179,179,179)" stroke-linejoin="round" d="M 1978,8589 L 2128,8589"/>
 <path fill="none" stroke="rgb(179,179,179)" stroke-linejoin="round" d="M 1978,8589 L 2128,8589"/>
 <path fill="none" stroke="rgb(179,179,179)" stroke-linejoin="round" d="M 1978,7610 L 2128,7610"/>
 <path fill="none" stroke="rgb(179,179,179)" stroke-linejoin="round" d="M 1978,7610 L 2128,7610"/>
 <path fill="none" stroke="rgb(179,179,179)" stroke-linejoin="round" d="M 1978,6630 L 2128,6630"/>
 <path fill="none" stroke="rgb(179,179,179)" stroke-linejoin="round" d="M 1978,6630 L 2128,6630"/>
 <path fill="none" stroke="rgb(179,179,179)" stroke-linejoin="round" d="M 1978,5650 L 2128,5650"/>
 <path fill="none" stroke="rgb(179,179,179)" stroke-linejoin="round" d="M 1978,5650 L 2128,5650"/>
 <path fill="none" stroke="rgb(179,179,179)" stroke-linejoin="round" d="M 1978,4670 L 2128,4670"/>
 <path fill="none" stroke="rgb(179,179,179)" stroke-linejoin="round" d="M 1978,4670 L 2128,4670"/>
 <path fill="none" stroke="rgb(179,179,179)" stroke-linejoin="round" d="M 1978,3691 L 2128,3691"/>
 <path fill="none" stroke="rgb(179,179,179)" stroke-linejoin="round" d="M 1978,3691 L 2128,3691"/>
 <path fill="none" stroke="rgb(179,179,179)" stroke-linejoin="round" d="M 1978,2711 L 2128,2711"/>
 <path fill="none" stroke="rgb(179,179,179)" stroke-linejoin="round" d="M 1978,2711 L 2128,2711"/>
 <path fill="none" stroke="rgb(179,179,179)" stroke-linejoin="round" d="M 1978,1732 L 2128,1732"/>
 <path fill="none" stroke="rgb(179,179,179)" stroke-linejoin="round" d="M 1978,1732 L 2128,1732"/>
 <path fill="none" stroke="rgb(179,179,179)" stroke-linejoin="round" d="M 2128,8589 L 2128,1732"/>
 <path fill="none" stroke="rgb(52,101,164)" stroke-width="80" stroke-linejoin="round" stroke-linecap="round" stroke-dasharray="1,159" d="M 2128,8148 L 2235,8090 2343,8033 2451,7977 2559,7921 2667,7864 2775,7808 2883,7752 2991,7696 3099,7641 3207,7587 3315,7533 3423,7479 3530,7427 3638,7375 3746,7323 3854,7273 3962,7223 4070,7175 4178,7127 4286,7081 4394,7035 4502,6991 4610,6949 4718,6908 4825,6870 4933,6834 5041,6800 5149,6769 5257,6742 5365,6718 5473,6697 5581,6681 5689,6668 5797,6660 5905,6657 6013,6658 6120,6665 6228,6677 6336,6694 6444,6718 6552,6747 6660,6782 6768,6822 6876,6865 6984,6912 7092,6960 7200,7011 7308,7062 7415,7113 7523,7163 7631,7212 7739,7258 7847,7302 7955,7342 8062,7377 8170,7407 8278,7431 8386,7448 8494,7457 8602,7458 8709,7450 8817,7433 8925,7408 9033,7375 9141,7335 9249,7288 9357,7234 9465,7175 9573,7109 9681,7039 9789,6964 9897,6885 10004,6801 10112,6715 10220,6625 10328,6533 10436,6439 10544,6344 10652,6247 10760,6150 10868,6052 10976,5954 11084,5857 11192,5760 11299,5664 11407,5569 11515,5476 11623,5384 11731,5294 11839,5206 11947,5121 12055,5039 12163,4960 12271,4884 12379,4811 12487,4743 12594,4679 12702,4619 12810,4563 12918,4513 13026,4468 13134,4428 13242,4393 13350,4362 13458,4336 13566,4313 13674,4294 13782,4279 13889,4266 13997,4257 14105,4250 14213,4245 14321,4243 14429,4243 14537,4244 14645,4246 14753,4249 14861,4254 14969,4258 15077,4263"/>
 <path fill="rgb(52,101,164)" stroke="none" d="M 2003,8148 L 2128,8273 2253,8148 2128,8023 2003,8148 Z"/>
 <path fill="none" stroke="rgb(52,101,164)" stroke-linejoin="round" d="M 2003,8148 L 2128,8273 2253,8148 2128,8023 2003,8148 Z"/>
 <path fill="rgb(52,101,164)" stroke="none" d="M 4161,7081 L 4286,7206 4411,7081 4286,6956 4161,7081 Z"/>
 <path fill="none" stroke="rgb(52,101,164)" stroke-linejoin="round" d="M 4161,7081 L 4286,7206 4411,7081 4286,6956 4161,7081 Z"/>
 <path fill="rgb(52,101,164)" stroke="none" d="M 6319,6718 L 6444,6843 6569,6718 6444,6593 6319,6718 Z"/>
 <path fill="none" stroke="rgb(52,101,164)" stroke-linejoin="round" d="M 6319,6718 L 6444,6843 6569,6718 6444,6593 6319,6718 Z"/>
 <path fill="rgb(52,101,164)" stroke="none" d="M 8477,7458 L 8602,7583 8727,7458 8602,7333 8477,7458 Z"/>
 <path fill="none" stroke="rgb(52,101,164)" stroke-linejoin="round" d="M 8477,7458 L 8602,7583 8727,7458 8602,7333 8477,7458 Z"/>
 <path fill="rgb(52,101,164)" stroke="none" d="M 10635,6150 L 10760,6275 10885,6150 10760,6025 10635,6150 Z"/>
 <path fill="none" stroke="rgb(52,101,164)" stroke-linejoin="round" d="M 10635,6150 L 10760,6275 10885,6150 10760,6025 10635,6150 Z"/>
 <path fill="rgb(52,101,164)" stroke="none" d="M 12793,4513 L 12918,4638 13043,4513 12918,4388 12793,4513 Z"/>
 <path fill="none" stroke="rgb(52,101,164)" stroke-linejoin="round" d="M 12793,4513 L 12918,4638 13043,4513 12918,4388 12793,4513 Z"/>
 <path fill="rgb(52,101,164)" stroke="none" d="M 14952,4263 L 15077,4388 15202,4263 15077,4138 14952,4263 Z"/>
 <path fill="none" stroke="rgb(52,101,164)" stroke-linejoin="round" d="M 14952,4263 L 15077,4388 15202,4263 15077,4138 14952,4263 Z"/>
 <path fill="none" stroke="rgb(255,66,14)" stroke-width="80" stroke-linejoin="round" stroke-dasharray="80,240" d="M 2128,8099 L 2235,8043 2343,7987 2451,7932 2559,7877 2667,7822 2775,7767 2883,7714 2991,7661 3099,7608 3207,7557 3315,7507 3423,7458 3530,7410 3638,7364 3746,7319 3854,7275 3962,7234 4070,7194 4178,7156 4286,7120 4394,7086 4502,7053 4610,7021 4718,6989 4825,6956 4933,6922 5041,6885 5149,6846 5257,6803 5365,6756 5473,6704 5581,6647 5689,6582 5797,6511 5905,6432 6013,6345 6120,6248 6228,6141 6336,6024 6444,5895 6552,5755 6660,5604 6768,5446 6876,5281 6984,5112 7092,4942 7200,4771 7308,4602 7415,4437 7523,4277 7631,4126 7739,3984 7847,3856 7955,3740 8062,3640 8170,3557 8278,3495 8386,3454 8494,3437 8602,3446 8709,3482 8817,3543 8925,3627 9033,3732 9141,3854 9249,3991 9357,4141 9465,4302 9573,4471 9681,4645 9789,4822 9897,5000 10004,5175 10112,5346 10220,5510 10328,5665 10436,5808 10544,5936 10652,6048 10760,6140 10868,6211 10976,6261 11084,6291 11192,6303 11299,6298 11407,6277 11515,6240 11623,6190 11731,6127 11839,6052 11947,5967 12055,5872 12163,5769 12271,5660 12379,5544 12487,5423 12594,5299 12702,5172 12810,5044 12918,4915 13026,4787 13134,4660 13242,4534 13350,4408 13458,4284 13566,4159 13674,4036 13782,3914 13889,3791 13997,3669 14105,3548 14213,3427 14321,3306 14429,3185 14537,3065 14645,2945 14753,2825 14861,2706 14969,2586 15077,2466"/>
 <text class="SVGTextShape"><tspan class="TextParagraph" font-family="Liberation Sans, sans-serif" font-size="353px" font-weight="400"><tspan class="TextPosition" x="1666" y="9157"><tspan fill="rgb(0,0,0)" stroke="none" style="white-space: pre">50x50</tspan></tspan></tspan></text>
 <text class="SVGTextShape"><tspan class="TextParagraph" font-family="Liberation Sans, sans-serif" font-size="353px" font-weight="400"><tspan class="TextPosition" x="3731" y="9157"><tspan fill="rgb(0,0,0)" stroke="none" style="white-space: pre">50x250</tspan></tspan></tspan></text>
 <text class="SVGTextShape"><tspan class="TextParagraph" font-family="Liberation Sans, sans-serif" font-size="353px" font-weight="400"><tspan class="TextPosition" x="5888" y="9157"><tspan fill="rgb(0,0,0)" stroke="none" style="white-space: pre">50x500</tspan></tspan></tspan></text>
 <text class="SVGTextShape"><tspan class="TextParagraph" font-family="Liberation Sans, sans-serif" font-size="353px" font-weight="400"><tspan class="TextPosition" x="7955" y="9157"><tspan fill="rgb(0,0,0)" stroke="none" style="white-space: pre">50x1000</tspan></tspan></tspan></text>
 <text class="SVGTextShape"><tspan class="TextParagraph" font-family="Liberation Sans, sans-serif" font-size="353px" font-weight="400"><tspan class="TextPosition" x="10113" y="9157"><tspan fill="rgb(0,0,0)" stroke="none" style="white-space: pre">250x250</tspan></tspan></tspan></text>
 <text class="SVGTextShape"><tspan class="TextParagraph" font-family="Liberation Sans, sans-serif" font-size="353px" font-weight="400"><tspan class="TextPosition" x="12270" y="9157"><tspan fill="rgb(0,0,0)" stroke="none" style="white-space: pre">250x500</tspan></tspan></tspan></text>
 <text class="SVGTextShape"><tspan class="TextParagraph" font-family="Liberation Sans, sans-serif" font-size="353px" font-weight="400"><tspan class="TextPosition" x="14336" y="9157"><tspan fill="rgb(0,0,0)" stroke="none" style="white-space: pre">250x1000</tspan></tspan></tspan></text>
 <text class="SVGTextShape"><tspan class="TextParagraph" font-family="Liberation Sans, sans-serif" font-size="353px" font-weight="400"><tspan class="TextPosition" x="1693" y="8710"><tspan fill="rgb(0,0,0)" stroke="none" style="white-space: pre">0</tspan></tspan></tspan></text>
 <text class="SVGTextShape"><tspan class="TextParagraph" font-family="Liberation Sans, sans-serif" font-size="353px" font-weight="400"><tspan class="TextPosition" x="1322" y="7730"><tspan fill="rgb(0,0,0)" stroke="none" style="white-space: pre">200</tspan></tspan></tspan></text>
 <text class="SVGTextShape"><tspan class="TextParagraph" font-family="Liberation Sans, sans-serif" font-size="353px" font-weight="400"><tspan class="TextPosition" x="1322" y="6750"><tspan fill="rgb(0,0,0)" stroke="none" style="white-space: pre">400</tspan></tspan></tspan></text>
 <text class="SVGTextShape"><tspan class="TextParagraph" font-family="Liberation Sans, sans-serif" font-size="353px" font-weight="400"><tspan class="TextPosition" x="1322" y="5771"><tspan fill="rgb(0,0,0)" stroke="none" style="white-space: pre">600</tspan></tspan></tspan></text>
 <text class="SVGTextShape"><tspan class="TextParagraph" font-family="Liberation Sans, sans-serif" font-size="353px" font-weight="400"><tspan class="TextPosition" x="1322" y="4791"><tspan fill="rgb(0,0,0)" stroke="none" style="white-space: pre">800</tspan></tspan></tspan></text>
 <text class="SVGTextShape"><tspan class="TextParagraph" font-family="Liberation Sans, sans-serif" font-size="353px" font-weight="400"><tspan class="TextPosition" x="1137" y="3811"><tspan fill="rgb(0,0,0)" stroke="none" style="white-space: pre">1000</tspan></tspan></tspan></text>
 <text class="SVGTextShape"><tspan class="TextParagraph" font-family="Liberation Sans, sans-serif" font-size="353px" font-weight="400"><tspan class="TextPosition" x="1137" y="2831"><tspan fill="rgb(0,0,0)" stroke="none" style="white-space: pre">1200</tspan></tspan></tspan></text>
 <text class="SVGTextShape"><tspan class="TextParagraph" font-family="Liberation Sans, sans-serif" font-size="353px" font-weight="400"><tspan class="TextPosition" x="1137" y="1853"><tspan fill="rgb(0,0,0)" stroke="none" style="white-space: pre">1400</tspan></tspan></tspan></text>
 <text class="SVGTextShape"><tspan class="TextParagraph" font-family="Liberation Sans, sans-serif" font-size="459px" font-weight="400"><tspan class="TextPosition" x="5302" y="858"><tspan fill="rgb(0,0,0)" stroke="none" style="white-space: pre">Path Walking Comparisons</tspan></tspan></tspan></text>
 <text class="SVGTextShape"><tspan class="TextParagraph" font-family="Liberation Sans, sans-serif" font-size="388px" font-weight="400"><tspan class="TextPosition" x="6154" y="1339"><tspan fill="rgb(0,0,0)" stroke="none" style="white-space: pre"> </tspan><tspan fill="rgb(0,0,0)" stroke="none" style="white-space: pre">Predicted and Actual</tspan></tspan></tspan></text>
 <path fill="rgb(255,255,255)" stroke="none" d="M 4835,3246 L 2299,3246 2299,1897 7371,1897 7371,3246 4835,3246 Z"/>
 <path fill="none" stroke="rgb(0,0,0)" stroke-linejoin="round" d="M 4835,3246 L 2299,3246 2299,1897 7371,1897 7371,3246 4835,3246 Z"/>
 <path fill="none" stroke="rgb(52,101,164)" stroke-width="80" stroke-linejoin="round" stroke-linecap="round" stroke-dasharray="1,159" d="M 3124,2279 L 4724,2279"/>
 <path fill="rgb(52,101,164)" stroke="none" d="M 3818,2279 L 3924,2385 4029,2279 3924,2174 3818,2279 Z"/>
 <path fill="none" stroke="rgb(52,101,164)" stroke-linejoin="round" d="M 3818,2279 L 3924,2385 4029,2279 3924,2174 3818,2279 Z"/>
 <path fill="none" stroke="rgb(255,66,14)" stroke-width="80" stroke-linejoin="round" stroke-dasharray="80,240" d="M 3124,2861 L 4724,2861"/>
 <text class="SVGTextShape"><tspan class="TextParagraph" font-family="Liberation Sans, sans-serif" font-size="353px" font-weight="400"><tspan class="TextPosition" x="4824" y="2399"><tspan fill="rgb(0,0,0)" stroke="none" style="white-space: pre">Walk steps</tspan></tspan></tspan></text>
 <text class="SVGTextShape"><tspan class="TextParagraph" font-family="Liberation Sans, sans-serif" font-size="353px" font-weight="400"><tspan class="TextPosition" x="4824" y="2981"><tspan fill="rgb(0,0,0)" stroke="none" style="white-space: pre">M+N</tspan></tspan></tspan></text>
 <text class="SVGTextShape"><tspan class="TextParagraph" font-family="Liberation Sans, sans-serif" font-size="318px" font-weight="400"><tspan class="TextPosition" x="7618" y="9800"><tspan fill="rgb(0,0,0)" stroke="none" style="white-space: pre">String Sizes</tspan></tspan></tspan></text>
 <text class="SVGTextShape" transform="rotate(-90 643 6350)"><tspan class="TextParagraph" font-family="Liberation Sans, sans-serif" font-size="318px" font-weight="400"><tspan class="TextPosition" x="643" y="6350"><tspan fill="rgb(0,0,0)" stroke="none" style="white-space: pre">Comparisons</tspan></tspan></tspan></text>
</svg>